<svg version="1.1" xmlns="http://www.w3.org/2000/svg" xmlns:xlink="http://www.w3.org/1999/xlink" width="467" height="122" viewBox="0 0 467 122"><g id="LogoMark"><g id="Logo"><g id="LogoMark"><g id="Logo"><path id="Dialog" d="M21.915,93.956 C25.258,97.347 28.625,100.715 32.017,104.058 C35.408,107.401 34.434,110.041 29.094,111.980 C23.754,113.919 19.141,116.356 13.811,118.353 C8.480,120.350 5.621,117.491 7.618,112.160 C9.615,106.829 12.053,102.218 13.992,96.878 C15.931,91.538 18.572,90.564 21.915,93.956 z" fill="#FFFFFF" /><path id="Elipse-1" d="M61.000,-0.000 C94.689,-0.000 122.000,27.311 122.000,61.000 C122.000,94.689 94.689,122.000 61.000,122.000 C27.311,122.000 -0.000,94.689 -0.000,61.000 C-0.000,27.311 27.311,-0.000 61.000,-0.000 z" fill="#FFFFFF" /><path id="Elipse-1-copiar" d="M61.000,34.031 C75.894,34.031 87.969,46.106 87.969,61.000 C87.969,75.894 75.894,87.969 61.000,87.969 C46.106,87.969 34.031,75.894 34.031,61.000 C34.031,46.106 46.106,34.031 61.000,34.031 z" fill="#FFC700" /></g></g></g><path id="GoBrunch" d="M455.928,86.895 C455.928,86.895 455.928,66.904 455.928,66.904 C455.928,61.752 454.053,59.176 450.303,59.176 C448.383,59.176 446.828,59.897 445.640,61.340 C444.451,62.783 443.856,64.615 443.856,66.836 C443.856,66.836 443.856,86.895 443.856,86.895 L433.020,86.895 L433.020,34.823 L443.856,34.823 L443.856,56.943 C443.856,56.943 443.994,56.943 443.994,56.943 C446.645,52.890 450.246,50.864 454.796,50.864 C462.752,50.864 466.730,55.673 466.730,65.290 C466.730,65.290 466.730,86.895 466.730,86.895 L455.928,86.895 zM415.324,87.754 C409.928,87.754 405.562,86.117 402.224,82.842 C398.886,79.567 397.217,75.343 397.217,70.167 C397.217,64.191 399.006,59.480 402.584,56.033 C406.162,52.587 410.946,50.864 416.936,50.864 C421.074,50.864 424.069,51.413 425.921,52.513 C425.921,52.513 425.921,61.718 425.921,61.718 C423.658,60.024 421.131,59.176 418.342,59.176 C415.233,59.176 412.769,60.086 410.952,61.907 C409.134,63.727 408.226,66.240 408.226,69.446 C408.226,72.561 409.094,75.005 410.832,76.779 C412.569,78.554 414.958,79.441 417.999,79.441 C420.697,79.441 423.337,78.594 425.921,76.900 C425.921,76.900 425.921,85.624 425.921,85.624 C423.474,87.044 419.942,87.754 415.324,87.754 zM379.934,67.351 C379.934,61.901 377.990,59.176 374.104,59.176 C372.229,59.176 370.686,59.897 369.474,61.340 C368.262,62.783 367.657,64.615 367.657,66.836 C367.657,66.836 367.657,86.895 367.657,86.895 L356.820,86.895 L356.820,51.723 L367.657,51.723 L367.657,57.287 C367.657,57.287 367.794,57.287 367.794,57.287 C370.377,53.005 374.138,50.864 379.076,50.864 C386.849,50.864 390.736,55.696 390.736,65.359 C390.736,65.359 390.736,86.895 390.736,86.895 L379.934,86.895 C379.934,86.895 379.934,67.351 379.934,67.351 zM336.895,81.537 C336.895,81.537 336.724,81.537 336.724,81.537 C334.049,85.681 330.471,87.754 325.990,87.754 C317.851,87.754 313.782,82.819 313.782,72.950 C313.782,72.950 313.782,51.723 313.782,51.723 L324.584,51.723 C324.584,51.723 324.584,71.988 324.584,71.988 C324.584,76.957 326.550,79.441 330.482,79.441 C332.425,79.441 333.980,78.760 335.146,77.398 C336.312,76.036 336.895,74.186 336.895,71.850 C336.895,71.850 336.895,51.723 336.895,51.723 L347.698,51.723 L347.698,86.895 L336.895,86.895 L336.895,81.537 zM304.522,60.447 C302.167,60.447 300.327,61.312 299.001,63.040 C297.675,64.769 297.012,67.122 297.012,70.099 C297.012,70.099 297.012,86.895 297.012,86.895 L286.175,86.895 L286.175,51.723 L297.012,51.723 L297.012,58.249 C297.012,58.249 297.149,58.249 297.149,58.249 C298.864,53.486 301.950,51.104 306.409,51.104 C307.551,51.104 308.443,51.242 309.083,51.517 C309.083,51.517 309.083,61.512 309.083,61.512 C307.780,60.802 306.260,60.447 304.522,60.447 zM276.007,64.328 C278.099,66.481 279.145,69.103 279.145,72.194 C279.145,76.705 277.534,80.283 274.310,82.928 C271.086,85.572 266.685,86.895 261.107,86.895 C261.107,86.895 242.211,86.895 242.211,86.895 L242.211,37.640 C242.211,37.640 260.113,37.640 260.113,37.640 C265.599,37.640 269.818,38.648 272.767,40.663 C275.716,42.678 277.191,45.517 277.191,49.181 C277.191,51.837 276.293,54.161 274.499,56.153 C272.704,58.146 270.412,59.531 267.623,60.310 C267.623,60.310 267.623,60.447 267.623,60.447 C271.121,60.882 273.916,62.176 276.007,64.328 zM257.438,45.815 C257.438,45.815 253.288,45.815 253.288,45.815 L253.288,57.493 C253.288,57.493 258.158,57.493 258.158,57.493 C260.444,57.493 262.244,56.938 263.559,55.827 C264.873,54.717 265.531,53.188 265.531,51.242 C265.531,47.624 262.833,45.815 257.438,45.815 zM265.342,67.420 C263.913,66.298 261.918,65.737 259.358,65.737 C259.358,65.737 253.288,65.737 253.288,65.737 L253.288,78.720 C253.288,78.720 259.289,78.720 259.289,78.720 C261.850,78.720 263.856,78.125 265.308,76.934 C266.760,75.744 267.486,74.117 267.486,72.057 C267.486,70.087 266.771,68.542 265.342,67.420 zM216.903,87.754 C211.781,87.754 207.729,86.065 204.746,82.687 C201.762,79.310 200.271,74.919 200.271,69.515 C200.271,63.676 201.831,59.107 204.952,55.810 C208.072,52.513 212.182,50.864 217.280,50.864 C222.287,50.864 226.242,52.501 229.146,55.776 C232.049,59.051 233.501,63.584 233.501,69.377 C233.501,74.851 232.020,79.281 229.060,82.670 C226.099,86.059 222.047,87.754 216.903,87.754 zM226.797,57.768 C224.521,55.089 221.304,53.749 217.143,53.749 C213.005,53.749 209.707,55.146 207.249,57.940 C204.791,60.734 203.563,64.615 203.563,69.584 C203.563,74.186 204.763,77.884 207.164,80.678 C209.564,83.472 212.844,84.868 217.006,84.868 C221.235,84.868 224.493,83.494 226.779,80.747 C229.065,77.999 230.209,74.186 230.209,69.309 C230.209,64.294 229.071,60.447 226.797,57.768 zM176.471,87.754 C169.772,87.754 164.354,85.475 160.216,80.918 C156.078,76.362 154.009,70.385 154.009,62.989 C154.009,55.524 156.238,49.296 160.696,44.303 C165.154,39.312 171.109,36.816 178.563,36.816 C182.884,36.816 187.079,37.686 191.149,39.426 C191.149,39.426 191.149,43.136 191.149,43.136 C186.690,40.984 182.335,39.907 178.083,39.907 C171.887,39.907 166.909,42.025 163.148,46.261 C159.387,50.498 157.507,55.902 157.507,62.474 C157.507,69.389 159.273,74.810 162.805,78.737 C166.337,82.665 171.098,84.628 177.088,84.628 C181.523,84.628 185.410,83.666 188.748,81.743 C188.748,81.743 188.748,65.496 188.748,65.496 L177.157,65.496 L177.157,62.405 L192.143,62.405 C192.143,62.405 192.143,83.460 192.143,83.460 C187.068,86.323 181.843,87.754 176.471,87.754 z" fill="#FFFFFF" /></g></svg>